<svg width="227" height="71" viewBox="0 0 227 71" fill="none" xmlns="http://www.w3.org/2000/svg">
<path d="M98.2584 19.178C96.7477 20.186 94.9624 19.9713 93.3837 19.2806C91.7357 18.5633 90.7277 18.1273 88.8157 18.5886C89.1064 17.3513 89.601 16.242 90.3437 15.2686C91.5904 13.6633 93.5877 12.758 95.621 12.8686C97.1224 12.946 99.0184 13.654 99.7437 15.0806C100.529 16.5913 99.5557 18.3246 98.2584 19.178ZM108.477 3.31663C106.769 2.0953 103.628 1.0873 99.061 0.301964C93.025 -0.500702 87.6464 0.301963 82.8917 2.6753C80.5864 3.76863 78.4517 5.7153 76.497 8.5153C75.8317 9.42863 75.2757 10.4353 74.8584 11.5366C74.4224 12.63 74.149 13.834 74.0304 15.1406C73.9104 16.4553 73.833 17.5566 73.8077 18.47C73.765 19.3913 73.7904 20.6206 73.8424 22.174C73.9104 23.7193 73.945 24.8126 73.945 25.4193C74.0637 29.4393 74.1744 31.7446 74.3024 32.3593C74.4824 34.6126 74.9437 36.782 75.677 38.8473C76.949 42.6206 79.4677 45.49 83.2157 47.4366C86.9544 49.3833 91.053 50.39 95.4917 50.4406C98.9757 50.51 102.749 50.1593 106.83 49.3993C110.902 48.6313 113.01 47.1966 113.122 45.0633C113.122 44.6873 113.164 44.0726 113.224 43.1846C113.276 42.3046 113.326 41.674 113.352 41.3153C113.394 40.9393 113.394 40.4273 113.352 39.7606C113.326 39.0873 113.249 38.498 113.122 37.9766C113.01 37.4646 112.857 36.9353 112.669 36.3806C112.49 35.954 112.25 35.57 111.944 35.2366C111.636 34.9033 111.261 34.6726 110.8 34.5446C110.348 34.434 109.954 34.3406 109.613 34.2806C109.272 34.2126 108.81 34.238 108.196 34.3233C107.589 34.4166 107.128 34.494 106.83 34.5446C106.522 34.6126 106.036 34.7246 105.37 34.87C104.696 35.0233 104.302 35.0993 104.174 35.0993C97.2344 36.6873 92.6064 36.4993 90.293 34.5446C90.045 34.366 89.7557 33.99 89.4224 33.418C89.089 32.838 88.8677 32.2233 88.7397 31.582C88.6117 30.9513 88.8677 30.498 89.473 30.2593C89.773 30.1913 90.3184 30.2166 91.113 30.31C91.9064 30.3953 92.9224 30.498 94.169 30.626C95.4157 30.746 96.593 30.806 97.6864 30.806C103.722 30.806 108.042 29.7046 110.662 27.5193C111.874 26.418 112.789 25.0686 113.404 23.4553C114.009 21.8326 114.342 20.5273 114.41 19.5193C114.47 18.5206 114.496 16.8646 114.496 14.5513C114.496 10.094 112.49 6.3553 108.477 3.31663Z" fill="#383838"/>
<path d="M138.357 37.7729C136.778 38.4649 134.993 38.6782 133.482 37.6702C132.185 36.8169 131.212 35.0835 131.997 33.5729C132.722 32.1475 134.618 31.4382 136.12 31.3609C138.152 31.2502 140.15 32.1555 141.396 33.7609C142.14 34.7342 142.634 35.8435 142.925 37.0809C141.013 36.6209 140.005 37.0555 138.357 37.7729ZM157.386 15.4649C157.301 14.5609 157.045 13.3822 156.618 11.9475C156.192 10.5142 155.577 9.22486 154.792 8.06353C151.317 3.0782 145.622 0.576867 137.7 0.576867C135.276 0.576867 132.526 0.848864 129.488 1.39553C125.825 2.0102 123.246 3.0782 121.718 4.59687C120.497 5.8182 119.892 7.0302 119.892 8.25153C119.892 8.4982 119.952 8.91686 120.07 9.52353C120.446 10.8729 121.078 12.2715 122 13.7315C123.024 15.5595 124.032 16.6262 125.005 16.9342C125.492 17.0529 125.825 17.1129 126.012 17.1129C126.686 17.1129 127.626 16.8569 128.846 16.3355C130.06 15.8155 130.853 15.4995 131.22 15.3795C132.373 15.0129 133.746 14.8249 135.326 14.8249C137.461 14.8249 139.441 15.1329 141.268 15.7382C142.609 16.2929 143.274 17.1382 143.274 18.2995C143.274 19.3329 142.762 20.0662 141.721 20.4942C141.601 20.5529 141.328 20.5795 140.901 20.5795C140.166 20.5795 139.27 20.4769 138.204 20.2635C137.137 20.0502 136.274 19.9382 135.608 19.9382C134.566 19.9382 133.62 20.0075 132.773 20.1262C128.573 20.6222 125.116 22.2782 122.41 25.1035C119.686 27.9382 118.337 31.3275 118.337 35.2969C118.337 36.6289 118.517 38.0289 118.893 39.4969C119.797 43.2702 121.957 46.1995 125.372 48.2649C125.918 48.5635 126.456 48.8462 126.969 49.0849C127.489 49.3329 128.113 49.5289 128.846 49.6822C129.572 49.8355 130.136 49.9475 130.537 50.0409C130.93 50.1435 131.588 50.2195 132.501 50.2715C133.414 50.3315 134.004 50.3649 134.277 50.3649C134.558 50.3649 135.224 50.3822 136.292 50.4075C137.358 50.4342 137.948 50.4502 138.076 50.4502C138.861 50.4502 140.372 50.4342 142.592 50.4075C144.82 50.3822 146.322 50.3649 147.117 50.3649C151.734 50.3649 154.792 49.3329 156.242 47.2662C156.49 46.8902 156.678 46.5062 156.797 46.1222C156.925 45.7209 157.002 45.3875 157.028 45.1062C157.054 44.8422 157.07 44.4409 157.07 43.9275C157.07 43.3995 157.105 42.9889 157.165 42.6902C157.344 40.4955 157.454 38.4809 157.481 36.6635C157.514 34.8355 157.532 32.7702 157.532 30.4569C157.532 28.1342 157.557 26.0942 157.617 24.3262V19.7595C157.557 17.8129 157.481 16.3782 157.386 15.4649Z" fill="#383838"/>
<path d="M162.324 28.0557C162.474 31.701 162.55 33.925 162.55 34.7397C162.55 35.6397 162.504 37.0877 162.409 39.0943C162.324 41.1023 162.305 42.6357 162.37 43.725C162.37 43.989 162.333 44.5663 162.276 45.4383C162.266 45.5237 162.266 45.609 162.266 45.6943C168.013 42.5223 175.426 43.7717 178.73 48.9023C178.94 48.6383 179.11 48.325 179.252 47.9757C179.554 47.209 179.716 46.545 179.753 45.9877C179.781 45.4197 179.762 44.5957 179.706 43.5157C179.64 42.437 179.612 41.8023 179.612 41.6223C179.612 38.2997 179.593 33.2623 179.564 26.5317C179.536 19.7997 179.517 14.773 179.517 11.4397C179.517 10.901 179.554 10.0103 179.612 8.77035C179.668 7.53035 179.706 6.63968 179.706 6.09968C179.706 5.56102 179.63 4.89834 179.478 4.11168C179.328 3.31701 179.072 2.63568 178.702 2.04901C178.58 1.91568 178.446 1.78368 178.296 1.64101C178.144 1.50901 177.965 1.39435 177.756 1.31035C177.538 1.21568 177.338 1.14902 177.16 1.10102L176.477 0.931679C176.213 0.865012 175.985 0.826343 175.796 0.798343C175.616 0.779676 175.38 0.742349 175.077 0.694349C174.773 0.657016 174.556 0.627678 174.442 0.627678C174.14 0.590345 172.529 0.562345 169.633 0.562345C168.421 0.562345 167.493 0.590345 166.858 0.627678C166.225 0.675678 165.468 0.789012 164.596 0.969012C163.716 1.14901 163.062 1.49034 162.637 1.98234C162.22 2.47434 162.001 3.12768 162.001 3.94234C162.125 13.0783 162.192 18.3223 162.192 19.677C162.125 21.6183 162.172 24.401 162.324 28.0557Z" fill="#383838"/>
<path d="M69.0281 26.1776C69.0081 24.091 68.9614 22.319 68.8948 20.851C68.8281 19.7163 68.7521 18.7736 68.6654 18.0203V17.915C68.6374 17.687 68.6174 17.4683 68.5894 17.2776C68.4654 16.5243 68.3228 15.791 68.1601 15.0856C68.1601 15.047 68.1414 15.0003 68.1414 14.9616C66.9601 9.80698 64.8828 6.20432 61.9281 4.16432C60.0414 2.84032 57.6588 1.98298 54.8001 1.61098C54.5721 1.57231 54.3334 1.53498 54.1134 1.52565C51.7121 1.26832 49.5681 1.31498 47.6348 1.67765C47.2534 1.74432 46.8908 1.81099 46.5294 1.91632C46.5188 1.91632 46.5001 1.93499 46.4814 1.93499C46.2614 1.98299 46.0521 2.04965 45.8428 2.12565C44.5468 2.47765 43.1548 3.13498 41.6788 4.06032C41.5068 4.17498 41.1828 4.40298 40.7734 4.74698C40.3254 5.10832 39.9814 5.34698 39.6961 5.55631C39.4388 5.71765 39.0961 5.79365 38.6961 5.77498C38.2854 5.73765 37.8948 5.55631 37.5334 5.17498C36.9614 4.55498 36.0748 3.90698 34.8548 3.22165C34.7228 3.16431 34.6161 3.09765 34.4748 3.03098C32.7494 2.15365 30.9294 1.52565 29.0228 1.14432C26.9841 0.753649 24.9254 0.781648 22.8388 1.22965C22.3054 1.35365 21.7908 1.50565 21.3134 1.67765C19.6468 2.29765 18.2548 3.49765 16.8348 4.53631C16.6641 4.66031 16.4721 4.79365 16.2641 4.74698C16.0828 4.69898 15.9588 4.50831 15.8921 4.31631C15.6814 3.80298 15.5868 3.24031 15.3574 2.72565C15.1388 2.21098 14.7294 1.72565 14.1761 1.62032C13.8814 1.57232 13.5761 1.63898 13.2988 1.70565C11.0508 2.24031 8.94411 2.82165 7.02944 4.16432C3.62677 6.48965 1.41611 10.8643 0.36811 17.2776C0.234777 18.135 0.129443 19.355 0.0627764 20.8976C0.0827764 22.8323 0.0827756 24.3963 0.0827756 25.5963V29.199C0.0441089 32.0763 0.0347773 34.6977 0.0147774 37.003V37.1176C-0.022556 41.4537 0.0147756 44.751 0.0827756 47.0283C0.0827756 49.0203 1.02544 50.0963 2.87477 50.2683C3.16944 50.307 4.05611 50.3443 5.53344 50.3537H9.15478C12.5468 50.563 14.6908 50.2683 15.6148 49.535C15.9401 49.2963 16.1868 49.0003 16.4068 48.6577C16.6254 48.315 16.7681 47.9243 16.8348 47.5137C16.8828 47.0857 16.9214 46.7043 16.9494 46.399C16.9881 46.0843 16.9881 45.6563 16.9494 45.0937C16.9214 44.5417 16.9214 44.1883 16.9214 43.9976C16.9214 37.699 16.9681 32.1817 17.0921 27.4443V25.8723C17.0921 25.1296 17.1214 24.615 17.1401 24.3097C17.1774 23.9857 17.2161 23.539 17.2254 22.919C17.2828 22.3096 17.3308 21.8417 17.4161 21.5843C17.5214 21.2896 17.6454 20.9177 17.7974 20.4217C17.9494 19.9163 18.1508 19.5736 18.3974 19.355C18.6361 19.1443 18.9414 18.907 19.3228 18.6683C19.6841 18.411 20.1134 18.259 20.5521 18.1536C20.7988 18.1163 21.0561 18.0683 21.3134 18.0496H21.3614C21.6188 18.0296 21.8961 18.0203 22.1814 18.0203C24.0868 17.963 25.3548 18.6683 25.9734 20.1456C26.5934 21.623 26.9174 24.3963 26.9841 28.455C26.9841 29.647 26.9654 31.2856 26.9548 33.4483C26.9174 35.6123 26.8988 37.2416 26.8988 38.3563C27.0214 41.4923 26.9841 44.3603 26.8121 46.943C26.7454 48.1817 26.8694 48.9817 27.1748 49.363C27.4801 49.7243 28.2228 49.963 29.4041 50.0963C31.8054 50.239 33.4641 50.3257 34.4081 50.3537H34.9401C35.1121 50.3537 35.6748 50.3923 36.6081 50.411C37.5334 50.439 38.2481 50.459 38.7814 50.459C39.2961 50.459 39.9148 50.3537 40.6201 50.183C41.3161 50.0017 41.8694 49.7243 42.2508 49.363C42.7268 48.915 42.9841 47.819 42.9841 46.0377C42.9841 43.9977 43.0028 41.215 43.0228 37.699C43.0508 34.183 43.0694 31.5137 43.0694 29.6563V25.463C43.0694 24.8243 43.0881 24.1763 43.1174 23.519C43.1548 22.871 43.2028 22.2896 43.3081 21.7563C43.3934 21.2416 43.5468 20.7456 43.7561 20.279C43.9748 19.8216 44.2694 19.4217 44.6521 19.079C45.0041 18.735 45.5094 18.479 46.1188 18.287C46.5481 18.1723 47.0334 18.087 47.5774 18.0496H47.6348C47.8721 18.0296 48.0921 18.0203 48.3294 18.0203C50.1214 17.963 51.3028 18.6203 51.8468 20.003C52.3988 21.3936 52.7041 24.091 52.7708 28.103V39.367C52.7708 40.0523 52.7601 40.939 52.7414 42.0536C52.7041 43.159 52.6841 44.0457 52.6841 44.731V45.799C52.6841 46.323 52.7041 46.723 52.7414 46.999C52.7601 47.267 52.8281 47.6097 52.9134 48.0097C52.9988 48.4203 53.1521 48.743 53.3708 49.0203C53.6001 49.315 53.8561 49.515 54.1614 49.6203C55.2108 50.0963 57.7641 50.3443 61.8241 50.3537H63.3668C66.8548 50.239 68.6174 49.2963 68.6654 47.5137C68.7414 45.399 68.8081 42.4163 68.9134 38.5377C68.9228 38.0417 68.9414 37.5843 68.9414 37.1176V37.0323C69.0081 33.8776 69.0468 31.4283 69.0468 29.6563C69.0468 28.703 69.0468 27.7883 69.0281 26.931V26.1776Z" fill="#383838"/>
<path d="M172.291 59.1741C170.446 61.0381 164.406 60.2701 162.859 59.8421C161.75 59.5341 160.682 59.0994 159.701 58.5528C159.949 58.6901 162.015 57.1594 162.318 56.9674C164.27 55.7341 166.555 54.3074 169.01 54.4301C170.437 54.5008 171.965 55.2208 172.542 56.6008C173.031 57.7688 172.862 58.5981 172.291 59.1741ZM177.177 51.6968C173.155 46.4128 165.283 46.5754 160.298 50.2208C153.502 55.3941 145.777 58.8168 137.649 61.5154C132.237 63.2994 126.653 64.5621 120.993 65.1768C103.518 67.3288 86.0928 61.3954 74.8408 47.4461C84.2488 63.5981 103.014 71.1621 121.361 70.1461C132.842 69.4634 144.309 66.6541 154.673 61.6088C157.49 64.7594 161.655 66.5434 165.787 67.0554C169.809 67.4488 174.274 67.3714 177.365 64.0674C180.215 60.5074 179.874 55.2821 177.177 51.6968Z" fill="#383838"/>
<path d="M214.859 29.7309C214.824 30.2603 214.739 30.7723 214.603 31.2589L211.981 28.9629C211.776 28.7829 211.537 28.7323 211.341 28.6549C210.795 28.2456 210.812 27.5029 211 26.8883C211.401 25.6589 211.153 24.3523 210.188 23.4816L207.473 21.0229L204.256 18.0776C204.068 17.9149 203.785 17.9576 203.649 18.0856C203.461 18.2736 203.469 18.5389 203.667 18.7429L208.336 23.7376C208.575 24.0029 208.541 24.3776 208.319 24.5909C208.113 24.8056 207.704 24.8483 207.448 24.5749L202.769 19.5976C202.54 19.3589 202.172 19.4269 202.009 19.6149C201.796 19.8283 201.796 20.1349 202.027 20.3736L206.629 25.3256C206.893 25.6069 206.833 25.9656 206.603 26.1963C206.399 26.3923 206.013 26.4096 205.757 26.1456L201.045 21.1083C200.857 20.9123 200.551 20.9803 200.405 21.1163C200.209 21.3043 200.26 21.5523 200.431 21.7483L202.385 24.2069L205.28 27.8949C205.971 28.7576 206.971 29.1843 208.045 29.0816C208.421 29.0389 208.712 28.9629 209.131 28.8683C209.583 28.7656 210.325 28.8603 210.513 29.3469C210.641 29.6203 210.607 29.8416 210.829 30.1149L213.535 33.5296C212.937 34.4176 212.109 35.2123 211.068 35.9203L208.763 33.8029C208.541 33.5989 208.268 33.5643 208.037 33.4189C207.559 33.1203 207.525 32.3949 207.671 31.9083C207.824 31.3616 207.969 30.8829 207.917 30.3029C206.244 30.4736 204.844 29.6803 203.855 28.3909L200.935 24.6429C199.415 24.9669 199.013 26.4949 199.193 27.8269C199.457 29.7989 200.464 31.5749 202.027 32.7789C203.12 33.6243 204.417 33.8883 205.749 33.6669C206.304 33.5723 206.901 33.7176 207.26 34.1616C207.312 34.3576 207.295 34.6656 207.491 34.8363L209.001 36.8163C208.755 36.8936 208.472 36.9709 208.173 37.0469C207.039 37.2776 205.732 37.3723 204.264 37.3456C202.019 37.2869 200.337 36.9016 199.201 36.1936C196.871 34.6656 195.556 32.5056 195.24 29.7309C194.821 25.2483 194.959 21.8603 195.667 19.5629C195.889 18.7016 196.359 17.8296 197.076 16.9256C199.081 14.5096 202.335 13.5189 206.817 13.9376C208.489 14.1163 210.061 14.6976 211.537 15.7043C213.007 16.7123 213.979 18.0003 214.432 19.5629C215.14 21.8603 215.285 25.2483 214.859 29.7309ZM225.197 12.2723C224.224 8.91761 222.141 6.15094 218.983 4.00028C215.815 1.84028 212.433 0.576275 208.84 0.209608C199.219 -0.695725 192.244 1.42961 187.924 6.61228C186.396 8.54961 185.388 10.4363 184.901 12.2723C183.381 17.2069 183.083 24.4803 183.988 34.1016C184.663 40.0696 187.497 44.6963 192.491 47.9829C194.924 49.5109 198.552 50.3309 203.359 50.4589C206.527 50.5109 209.327 50.3056 211.768 49.8189C214.568 49.0843 216.387 48.4443 217.249 47.8976C222.781 44.3549 225.735 39.7616 226.111 34.1016C227.024 24.4803 226.716 17.2069 225.197 12.2723Z" fill="#383838"/>
</svg>
