<svg width="227" height="71" viewBox="0 0 227 71" fill="none" xmlns="http://www.w3.org/2000/svg">
<path d="M98.2584 19.1779C96.7477 20.1859 94.9624 19.9712 93.3837 19.2806C91.7357 18.5632 90.7277 18.1272 88.8157 18.5886C89.1064 17.3512 89.601 16.2419 90.3437 15.2686C91.5904 13.6632 93.5877 12.7579 95.621 12.8686C97.1224 12.9459 99.0184 13.6539 99.7437 15.0806C100.529 16.5912 99.5557 18.3246 98.2584 19.1779ZM108.477 3.31658C106.769 2.09525 103.628 1.08724 99.061 0.301907C93.025 -0.500759 87.6464 0.30191 82.8917 2.67524C80.5864 3.76858 78.4517 5.71524 76.497 8.51524C75.8317 9.42858 75.2757 10.4352 74.8584 11.5366C74.4224 12.6299 74.149 13.8339 74.0304 15.1406C73.9104 16.4552 73.833 17.5566 73.8077 18.4699C73.765 19.3912 73.7904 20.6206 73.8424 22.1739C73.9104 23.7192 73.945 24.8126 73.945 25.4192C74.0637 29.4392 74.1744 31.7446 74.3024 32.3592C74.4824 34.6126 74.9437 36.7819 75.677 38.8472C76.949 42.6219 79.4677 45.4899 83.2157 47.4366C86.9544 49.3832 91.053 50.3899 95.4917 50.4419C98.9757 50.5099 102.749 50.1592 106.83 49.3992C110.902 48.6312 113.01 47.1966 113.122 45.0632C113.122 44.6872 113.164 44.0726 113.224 43.1846C113.276 42.3059 113.326 41.6739 113.352 41.3152C113.394 40.9392 113.394 40.4272 113.352 39.7606C113.326 39.0872 113.249 38.4979 113.122 37.9766C113.01 37.4646 112.857 36.9352 112.669 36.3806C112.49 35.9539 112.25 35.5699 111.944 35.2366C111.636 34.9032 111.261 34.6726 110.8 34.5446C110.348 34.4339 109.954 34.3406 109.613 34.2806C109.272 34.2126 108.81 34.2379 108.196 34.3232C107.589 34.4166 107.128 34.4939 106.83 34.5446C106.522 34.6126 106.036 34.7246 105.37 34.8699C104.696 35.0232 104.302 35.1006 104.174 35.1006C97.2344 36.6872 92.6064 36.5006 90.293 34.5446C90.045 34.3659 89.7557 33.9899 89.4224 33.4179C89.089 32.8379 88.8677 32.2232 88.7397 31.5819C88.6117 30.9512 88.8677 30.4979 89.473 30.2592C89.773 30.1912 90.3184 30.2166 91.113 30.3099C91.9064 30.3966 92.9224 30.4979 94.169 30.6259C95.4157 30.7459 96.593 30.8059 97.6864 30.8059C103.722 30.8059 108.042 29.7046 110.662 27.5192C111.874 26.4179 112.789 25.0686 113.404 23.4552C114.009 21.8326 114.342 20.5272 114.41 19.5192C114.47 18.5206 114.496 16.8646 114.496 14.5512C114.496 10.0939 112.49 6.35524 108.477 3.31658Z" fill="#E66024"/>
<path d="M138.357 37.7719C136.778 38.4639 134.993 38.6772 133.482 37.6692C132.185 36.8159 131.212 35.0826 131.997 33.5719C132.722 32.1466 134.618 31.4372 136.12 31.3599C138.152 31.2492 140.15 32.1546 141.396 33.7599C142.14 34.7332 142.634 35.8426 142.925 37.0799C141.013 36.6186 140.005 37.0546 138.357 37.7719ZM157.386 15.4639C157.301 14.5599 157.045 13.3812 156.618 11.9466C156.192 10.5132 155.577 9.22389 154.792 8.06255C151.317 3.07722 145.622 0.57589 137.7 0.57589C135.276 0.57589 132.526 0.847889 129.488 1.39455C125.825 2.00922 123.246 3.07722 121.718 4.59589C120.497 5.81722 119.892 7.02922 119.892 8.25055C119.892 8.49722 119.952 8.91589 120.07 9.52256C120.446 10.8719 121.078 12.2706 122 13.7306C123.024 15.5586 124.032 16.6252 125.005 16.9332C125.492 17.0519 125.825 17.1119 126.012 17.1119C126.686 17.1119 127.626 16.8559 128.846 16.3346C130.06 15.8146 130.853 15.4986 131.22 15.3786C132.373 15.0119 133.746 14.8239 135.326 14.8239C137.461 14.8239 139.441 15.1319 141.268 15.7372C142.609 16.2919 143.274 17.1372 143.274 18.2986C143.274 19.3319 142.762 20.0652 141.721 20.4932C141.601 20.5519 141.328 20.5786 140.901 20.5786C140.166 20.5786 139.27 20.4759 138.204 20.2626C137.137 20.0492 136.274 19.9372 135.608 19.9372C134.566 19.9372 133.62 20.0066 132.773 20.1252C128.573 20.6212 125.116 22.2772 122.41 25.1026C119.686 27.9372 118.337 31.3266 118.337 35.2959C118.337 36.6279 118.517 38.0279 118.893 39.4959C119.797 43.2692 121.957 46.1986 125.372 48.2639C125.918 48.5626 126.456 48.8452 126.969 49.0839C127.489 49.3306 128.113 49.5279 128.846 49.6812C129.572 49.8346 130.136 49.9452 130.537 50.0399C130.93 50.1426 131.588 50.2186 132.501 50.2706C133.414 50.3306 134.004 50.3639 134.277 50.3639C134.558 50.3639 135.224 50.3812 136.292 50.4066C137.358 50.4332 137.948 50.4492 138.076 50.4492C138.861 50.4492 140.372 50.4332 142.592 50.4066C144.82 50.3812 146.322 50.3639 147.117 50.3639C151.734 50.3639 154.792 49.3306 156.242 47.2652C156.49 46.8892 156.678 46.5052 156.797 46.1212C156.925 45.7199 157.002 45.3866 157.028 45.1052C157.054 44.8412 157.07 44.4399 157.07 43.9266C157.07 43.3986 157.105 42.9879 157.165 42.6892C157.344 40.4946 157.454 38.4799 157.481 36.6626C157.514 34.8346 157.532 32.7692 157.532 30.4559C157.532 28.1332 157.557 26.0932 157.617 24.3252V19.7586C157.557 17.8119 157.481 16.3772 157.386 15.4639Z" fill="#E66024"/>
<path d="M162.324 28.0557C162.474 31.701 162.55 33.925 162.55 34.7397C162.55 35.6397 162.504 37.0877 162.409 39.0943C162.324 41.101 162.305 42.6357 162.37 43.725C162.37 43.989 162.333 44.5663 162.276 45.4383C162.266 45.5237 162.266 45.609 162.266 45.6943C168.013 42.5223 175.426 43.7717 178.73 48.9023C178.94 48.6383 179.11 48.325 179.252 47.9757C179.554 47.209 179.716 46.545 179.753 45.9877C179.781 45.4197 179.762 44.5957 179.706 43.5157C179.64 42.437 179.612 41.8023 179.612 41.6223C179.612 38.2997 179.593 33.2623 179.564 26.5317C179.536 19.7997 179.517 14.773 179.517 11.4397C179.517 10.901 179.554 10.0103 179.612 8.77035C179.668 7.53035 179.706 6.63968 179.706 6.09968C179.706 5.56102 179.63 4.89834 179.478 4.11168C179.328 3.31701 179.072 2.63568 178.702 2.04902C178.58 1.91568 178.446 1.78368 178.296 1.64101C178.144 1.50901 177.965 1.39435 177.756 1.31034C177.538 1.21568 177.338 1.14902 177.16 1.10102L176.477 0.931679C176.213 0.865013 175.985 0.826344 175.796 0.798344C175.616 0.779675 175.38 0.742348 175.077 0.694347C174.773 0.657017 174.556 0.627678 174.442 0.627678C174.14 0.590343 172.529 0.562344 169.633 0.562344C168.421 0.562344 167.493 0.590343 166.858 0.627678C166.225 0.675678 165.468 0.789013 164.596 0.969013C163.716 1.14901 163.062 1.49035 162.637 1.98234C162.22 2.47434 162.001 3.12768 162.001 3.94234C162.125 13.0783 162.192 18.3223 162.192 19.677C162.125 21.6183 162.172 24.401 162.324 28.0557Z" fill="#E66024"/>
<path d="M69.0281 26.1777C69.0081 24.091 68.9614 22.319 68.8948 20.851C68.8281 19.7163 68.7521 18.7736 68.6654 18.0203V17.915C68.6374 17.687 68.6174 17.4683 68.5894 17.2776C68.4654 16.5243 68.3228 15.791 68.1601 15.0856C68.1601 15.0483 68.1414 15.0003 68.1414 14.9616C66.9601 9.80698 64.8828 6.20432 61.9281 4.16431C60.0414 2.84032 57.6588 1.98298 54.8001 1.61098C54.5721 1.57232 54.3334 1.53498 54.1134 1.52565C51.7121 1.26831 49.5681 1.31498 47.6348 1.67765C47.2534 1.74432 46.8908 1.81099 46.5294 1.91632C46.5188 1.91632 46.5001 1.93499 46.4814 1.93499C46.2614 1.98299 46.0521 2.04965 45.8428 2.12565C44.5468 2.47765 43.1548 3.13498 41.6788 4.06032C41.5068 4.17498 41.1828 4.40298 40.7734 4.74698C40.3254 5.10831 39.9814 5.34698 39.6961 5.55631C39.4388 5.71765 39.0961 5.79498 38.6961 5.77498C38.2854 5.73765 37.8948 5.55632 37.5334 5.17498C36.9614 4.55498 36.0748 3.90698 34.8548 3.22165C34.7228 3.16431 34.6161 3.09765 34.4748 3.03098C32.7494 2.15365 30.9294 1.52565 29.0228 1.14432C26.9841 0.753651 24.9254 0.781647 22.8388 1.22965C22.3054 1.35365 21.7908 1.50565 21.3134 1.67765C19.6468 2.29765 18.2548 3.49765 16.8348 4.53632C16.6641 4.66031 16.4721 4.79365 16.2641 4.74698C16.0828 4.69898 15.9588 4.50831 15.8921 4.31631C15.6814 3.80298 15.5868 3.24031 15.3574 2.72565C15.1388 2.21098 14.7294 1.72565 14.1761 1.62032C13.8814 1.57232 13.5761 1.63898 13.2988 1.70565C11.0508 2.24031 8.94411 2.82165 7.02944 4.16431C3.62677 6.48965 1.41611 10.8643 0.36811 17.2776C0.234777 18.135 0.129443 19.355 0.0627764 20.8976C0.0827764 22.8323 0.0827756 24.3963 0.0827756 25.5963V29.199C0.0441089 32.0763 0.0347774 34.6977 0.0147774 37.003V37.1177C-0.022556 41.4537 0.0147756 44.751 0.0827756 47.0283C0.0827756 49.0203 1.02544 50.0963 2.87477 50.2683C3.16944 50.307 4.05611 50.3443 5.53344 50.3537H9.15478C12.5468 50.563 14.6908 50.2683 15.6148 49.535C15.9401 49.2963 16.1868 49.0003 16.4068 48.6577C16.6254 48.315 16.7681 47.9243 16.8348 47.5137C16.8828 47.0857 16.9214 46.7043 16.9494 46.399C16.9881 46.0843 16.9881 45.6563 16.9494 45.0937C16.9214 44.5417 16.9214 44.1883 16.9214 43.9977C16.9214 37.699 16.9681 32.1817 17.0921 27.4443V25.8723C17.0921 25.1297 17.1214 24.615 17.1401 24.3097C17.1774 23.9857 17.2161 23.539 17.2254 22.919C17.2828 22.3096 17.3308 21.8417 17.4161 21.5843C17.5214 21.2896 17.6454 20.9177 17.7974 20.4216C17.9494 19.9163 18.1508 19.5736 18.3974 19.355C18.6361 19.1443 18.9414 18.907 19.3228 18.6683C19.6841 18.411 20.1134 18.259 20.5521 18.1536C20.7988 18.1163 21.0561 18.0683 21.3134 18.0496H21.3614C21.6188 18.0296 21.8961 18.0203 22.1814 18.0203C24.0868 17.963 25.3548 18.6683 25.9734 20.1456C26.5934 21.623 26.9174 24.3963 26.9841 28.455C26.9841 29.647 26.9654 31.2857 26.9548 33.4483C26.9174 35.6123 26.8988 37.2416 26.8988 38.3563C27.0214 41.4923 26.9841 44.3603 26.8121 46.943C26.7454 48.1817 26.8694 48.9817 27.1748 49.363C27.4801 49.7243 28.2228 49.963 29.4041 50.0963C31.8054 50.239 33.4641 50.3257 34.4081 50.3537H34.9401C35.1121 50.3537 35.6748 50.3923 36.6081 50.411C37.5334 50.439 38.2481 50.459 38.7814 50.459C39.2961 50.459 39.9148 50.3537 40.6201 50.183C41.3161 50.0017 41.8694 49.7243 42.2508 49.363C42.7268 48.915 42.9841 47.819 42.9841 46.0377C42.9841 43.9977 43.0028 41.215 43.0228 37.699C43.0508 34.183 43.0694 31.5137 43.0694 29.6563V25.463C43.0694 24.8243 43.0881 24.1763 43.1174 23.519C43.1548 22.871 43.2028 22.2896 43.3081 21.7563C43.3934 21.2416 43.5468 20.7456 43.7561 20.279C43.9748 19.8216 44.2694 19.4216 44.6521 19.079C45.0041 18.735 45.5094 18.479 46.1188 18.287C46.5481 18.1723 47.0334 18.087 47.5774 18.0496H47.6348C47.8721 18.0296 48.0921 18.0203 48.3294 18.0203C50.1214 17.963 51.3028 18.6203 51.8468 20.003C52.3988 21.3936 52.7041 24.091 52.7708 28.103V39.367C52.7708 40.0523 52.7601 40.939 52.7414 42.0536C52.7041 43.159 52.6841 44.0457 52.6841 44.731V45.799C52.6841 46.323 52.7041 46.723 52.7414 46.999C52.7601 47.267 52.8281 47.6097 52.9134 48.0097C52.9988 48.4203 53.1521 48.743 53.3708 49.0203C53.6001 49.315 53.8561 49.515 54.1614 49.6203C55.2108 50.0963 57.7641 50.3443 61.8241 50.3537H63.3668C66.8548 50.239 68.6174 49.2963 68.6654 47.5137C68.7414 45.399 68.8081 42.4163 68.9134 38.5377C68.9228 38.0417 68.9414 37.5843 68.9414 37.1177V37.0323C69.0081 33.8776 69.0468 31.4283 69.0468 29.6563C69.0468 28.703 69.0468 27.7883 69.0281 26.931V26.1777Z" fill="#E66024"/>
<path d="M172.291 59.1731C170.446 61.0371 164.406 60.2691 162.859 59.8411C161.75 59.5331 160.682 59.0971 159.701 58.5518C159.949 58.6891 162.015 57.1585 162.318 56.9665C164.27 55.7331 166.555 54.3065 169.01 54.4291C170.437 54.4998 171.965 55.2198 172.542 56.5998C173.031 57.7678 172.862 58.5971 172.291 59.1731ZM177.177 51.6958C173.155 46.4118 165.283 46.5731 160.298 50.2198C153.502 55.3931 145.777 58.8158 137.649 61.5145C132.237 63.2985 126.653 64.5611 120.993 65.1758C103.518 67.3278 86.0928 61.3945 74.8408 47.4451C84.2488 63.5971 103.014 71.1611 121.361 70.1451C132.842 69.4625 144.309 66.6531 154.673 61.6078C157.49 64.7585 161.655 66.5425 165.787 67.0545C169.809 67.4478 174.274 67.3705 177.365 64.0665C180.215 60.5065 179.874 55.2811 177.177 51.6958Z" fill="#E66024"/>
<path d="M214.859 29.73C214.824 30.2593 214.739 30.7713 214.603 31.258L211.981 28.962C211.776 28.782 211.537 28.7313 211.341 28.654C210.795 28.2446 210.812 27.502 211 26.8873C211.401 25.658 211.153 24.3513 210.188 23.4806L207.473 21.022L204.256 18.0766C204.068 17.914 203.785 17.9566 203.649 18.0846C203.461 18.2726 203.469 18.538 203.667 18.742L208.336 23.7366C208.575 24.002 208.541 24.3766 208.319 24.59C208.113 24.8046 207.704 24.8473 207.448 24.574L202.769 19.5966C202.54 19.358 202.172 19.426 202.009 19.614C201.796 19.8273 201.796 20.134 202.027 20.3726L206.629 25.3246C206.893 25.606 206.833 25.9646 206.603 26.1953C206.399 26.3913 206.013 26.4086 205.757 26.1446L201.045 21.1073C200.857 20.9113 200.551 20.9793 200.405 21.1153C200.209 21.3033 200.26 21.5513 200.431 21.7473L202.385 24.206L205.28 27.894C205.971 28.7566 206.971 29.1833 208.045 29.0806C208.421 29.038 208.712 28.962 209.131 28.8673C209.583 28.7646 210.325 28.8593 210.513 29.346C210.641 29.6193 210.607 29.8406 210.829 30.114L213.535 33.5286C212.937 34.4166 212.109 35.2113 211.068 35.9193L208.763 33.802C208.541 33.598 208.268 33.5633 208.037 33.418C207.559 33.1193 207.525 32.394 207.671 31.9073C207.824 31.3606 207.969 30.882 207.917 30.302C206.244 30.4726 204.844 29.6793 203.855 28.39L200.935 24.642C199.415 24.966 199.013 26.494 199.193 27.826C199.457 29.798 200.464 31.574 202.027 32.778C203.12 33.6233 204.417 33.8873 205.75 33.666C206.304 33.5713 206.901 33.7166 207.26 34.1606C207.312 34.3566 207.295 34.6646 207.491 34.8353L209.001 36.8153C208.755 36.8926 208.472 36.97 208.173 37.046C207.039 37.2766 205.732 37.3713 204.264 37.3446C202.019 37.286 200.337 36.9006 199.201 36.1926C196.871 34.6646 195.556 32.5046 195.24 29.73C194.821 25.2473 194.959 21.8593 195.667 19.562C195.889 18.7006 196.359 17.8286 197.076 16.9246C199.081 14.5086 202.335 13.518 206.817 13.9366C208.489 14.1153 210.061 14.6966 211.537 15.7033C213.007 16.7113 213.979 17.9993 214.432 19.562C215.14 21.8593 215.285 25.2473 214.859 29.73ZM225.197 12.2713C224.224 8.91663 222.141 6.14997 218.983 3.9993C215.815 1.8393 212.433 0.575298 208.84 0.20863C199.219 -0.696701 192.244 1.42863 187.924 6.6113C186.396 8.54863 185.388 10.4353 184.901 12.2713C183.381 17.206 183.083 24.4793 183.988 34.1006C184.663 40.0686 187.497 44.6953 192.491 47.982C194.924 49.51 198.552 50.33 203.359 50.458C206.527 50.51 209.327 50.3046 211.768 49.818C214.568 49.0833 216.387 48.4433 217.249 47.8966C222.781 44.354 225.735 39.7606 226.111 34.1006C227.024 24.4793 226.716 17.206 225.197 12.2713Z" fill="#E66024"/>
</svg>
